<svg width="385" height="366" viewBox="0 0 385 366" fill="none" xmlns="http://www.w3.org/2000/svg">
<rect width="385" height="365.5" rx="32" fill="#E9E8DE"/>
<circle cx="91.9404" cy="82.6846" r="41.3857" fill="#FFFDF0"/>
<rect x="248.789" y="41.2988" width="92.0039" height="76.5254" rx="12" fill="#FFFDF0"/>
<rect x="46.6406" y="156.478" width="123.5" height="53.5625" rx="12" fill="#5F1CFC"/>
<rect x="46.6406" y="218.629" width="123.5" height="53.5625" rx="12" fill="#FFFDF0"/>
<rect x="46.6406" y="280.744" width="123.5" height="53.6333" rx="12" fill="#FF352E"/>
<rect x="294.789" y="199.407" width="65.0573" height="65.0573" rx="10" transform="rotate(45 294.789 199.407)" fill="#FFFDF0"/>
<path d="M129.892 83.1094C129.892 84.5821 131.086 85.776 132.559 85.776C134.031 85.776 135.225 84.5821 135.225 83.1094C135.225 81.6366 134.031 80.4427 132.559 80.4427C131.086 80.4427 129.892 81.6366 129.892 83.1094ZM248.924 83.4629C249.119 83.2677 249.119 82.9511 248.924 82.7558L245.742 79.5738C245.547 79.3786 245.23 79.3786 245.035 79.5738C244.84 79.7691 244.84 80.0857 245.035 80.2809L247.863 83.1094L245.035 85.9378C244.84 86.1331 244.84 86.4496 245.035 86.6449C245.23 86.8402 245.547 86.8402 245.742 86.6449L248.924 83.4629ZM132.559 83.1094V83.6094H248.57V83.1094V82.6094H132.559V83.1094Z" fill="#D7D5C8"/>
<path d="M294.789 115.158C293.316 115.158 292.122 116.351 292.122 117.824C292.122 119.297 293.316 120.491 294.789 120.491C296.262 120.491 297.456 119.297 297.456 117.824C297.456 116.351 296.262 115.158 294.789 115.158ZM294.436 203.081C294.631 203.276 294.947 203.276 295.143 203.081L298.325 199.899C298.52 199.703 298.52 199.387 298.325 199.192C298.129 198.996 297.813 198.996 297.617 199.192L294.789 202.02L291.961 199.192C291.765 198.996 291.449 198.996 291.254 199.192C291.058 199.387 291.058 199.703 291.254 199.899L294.436 203.081ZM294.789 117.824L294.289 117.824L294.289 202.727L294.789 202.727L295.289 202.727L295.289 117.824L294.789 117.824Z" fill="#D7D5C8"/>
<path d="M170.803 182.906C170.607 183.101 170.607 183.418 170.803 183.613L173.985 186.795C174.18 186.99 174.497 186.99 174.692 186.795C174.887 186.6 174.887 186.283 174.692 186.088L171.863 183.259L174.692 180.431C174.887 180.236 174.887 179.919 174.692 179.724C174.497 179.528 174.18 179.528 173.985 179.724L170.803 182.906ZM253.23 248.077C254.703 248.077 255.897 246.883 255.897 245.41C255.897 243.937 254.703 242.743 253.23 242.743C251.758 242.743 250.564 243.937 250.564 245.41C250.564 246.883 251.758 248.077 253.23 248.077ZM224.888 217.068L225.388 217.068L225.388 214.335L224.888 214.335L224.388 214.335L224.388 217.068L224.888 217.068ZM193.813 183.259L193.813 182.759L171.156 182.759L171.156 183.259L171.156 183.759L193.813 183.759L193.813 183.259ZM224.888 214.335L225.388 214.335C225.388 196.896 211.252 182.759 193.813 182.759L193.813 183.259L193.813 183.759C210.699 183.759 224.388 197.448 224.388 214.335L224.888 214.335ZM224.888 217.068L224.388 217.068C224.388 232.997 237.301 245.91 253.23 245.91L253.23 245.41L253.23 244.91C237.854 244.91 225.388 232.445 225.388 217.068L224.888 217.068Z" fill="#D7D5C8"/>
<path d="M224.888 245.41L224.879 244.91L224.888 244.91L224.888 245.41ZM170.809 246.77C170.61 246.579 170.605 246.262 170.796 246.063L173.918 242.823C174.11 242.624 174.427 242.618 174.625 242.809C174.824 243.001 174.83 243.318 174.639 243.516L171.863 246.397L174.744 249.172C174.943 249.364 174.949 249.68 174.757 249.879C174.565 250.078 174.249 250.084 174.05 249.892L170.809 246.77ZM253.23 242.743C254.703 242.743 255.897 243.937 255.897 245.41C255.897 246.883 254.703 248.077 253.23 248.077C251.758 248.077 250.564 246.883 250.564 245.41C250.564 243.937 251.758 242.743 253.23 242.743ZM224.888 245.41L224.898 245.91L171.166 246.91L171.156 246.41L171.147 245.91L224.879 244.91L224.888 245.41ZM224.888 245.41L224.888 244.91L253.23 244.91L253.23 245.41L253.23 245.91L224.888 245.91L224.888 245.41Z" fill="#D7D5C8"/>
<path d="M170.803 307.915C170.607 307.719 170.607 307.403 170.803 307.207L173.985 304.026C174.18 303.83 174.497 303.83 174.692 304.026C174.887 304.221 174.887 304.537 174.692 304.733L171.863 307.561L174.692 310.389C174.887 310.585 174.887 310.901 174.692 311.097C174.497 311.292 174.18 311.292 173.985 311.097L170.803 307.915ZM253.23 242.743C254.703 242.743 255.897 243.937 255.897 245.41C255.897 246.883 254.703 248.077 253.23 248.077C251.758 248.077 250.564 246.883 250.564 245.41C250.564 243.937 251.758 242.743 253.23 242.743ZM224.888 273.752L225.388 273.752L225.388 276.486L224.888 276.486L224.388 276.486L224.388 273.752L224.888 273.752ZM193.813 307.561L193.813 308.061L171.156 308.061L171.156 307.561L171.156 307.061L193.813 307.061L193.813 307.561ZM224.888 276.486L225.388 276.486C225.388 293.924 211.252 308.061 193.813 308.061L193.813 307.561L193.813 307.061C210.699 307.061 224.388 293.372 224.388 276.486L224.888 276.486ZM224.888 273.752L224.388 273.752C224.388 257.823 237.301 244.91 253.23 244.91L253.23 245.41L253.23 245.91C237.854 245.91 225.388 258.375 225.388 273.752L224.888 273.752Z" fill="#FF352E"/>
<rect x="166.887" y="76.0117" width="51.2295" height="13.3473" rx="6.67365" fill="#FFFDF0"/>
<rect x="269.176" y="153.603" width="51.2295" height="13.3473" rx="6.67365" fill="#FFFDF0"/>
<rect x="261.426" y="58.5371" width="39.8694" height="10.9213" rx="5.46067" fill="#F3F1E4"/>
<rect x="261.426" y="74.1016" width="61.3762" height="10.9213" rx="5.46067" fill="#F3F1E4"/>
<rect x="61.2539" y="231.977" width="45.6006" height="10.9213" rx="5.46067" fill="#F3F1E4"/>
<rect x="61.2539" y="169.86" width="45.6006" height="10.9213" rx="5.46067" fill="#F3F1E4"/>
<rect x="61.2539" y="294.145" width="45.6006" height="10.9213" rx="5.46067" fill="#F3F1E4"/>
<rect x="61.25" y="247.887" width="87.6299" height="10.9213" rx="5.46067" fill="#F3F1E4"/>
<rect x="61.25" y="185.771" width="87.6299" height="10.9213" rx="5.46067" fill="#F3F1E4"/>
<rect x="61.25" y="310.056" width="87.6299" height="10.9213" rx="5.46067" fill="#F3F1E4"/>
<rect x="261.426" y="89.666" width="61.3762" height="10.9213" rx="5.46067" fill="#F3F1E4"/>
</svg>
